<svg xmlns="http://www.w3.org/2000/svg" width="28" height="28" fill="none"><path d="M14.006 28.012a14.01 14.01 0 0 0 14.006-14.006A14.01 14.01 0 0 0 14.006 0 14.01 14.01 0 0 0 0 14.006a14.01 14.01 0 0 0 14.006 14.006z" fill="url(#A)"/><path fill-rule="evenodd" d="M6.334 13.856l8.163-3.522 5.225-1.913c.117 0 .373.023.548.163.14.117.175.268.198.385a2.02 2.02 0 0 1 .023.548c-.21 2.216-1.12 7.592-1.586 10.064-.198 1.05-.583 1.399-.956 1.434-.816.07-1.434-.536-2.216-1.05-1.236-.805-1.924-1.306-3.125-2.099-1.388-.91-.49-1.411.303-2.227.21-.21 3.79-3.475 3.86-3.767.012-.035.012-.175-.07-.245s-.198-.047-.291-.023c-.128.023-2.088 1.33-5.901 3.907-.56.385-1.061.571-1.516.56-.501-.012-1.458-.28-2.181-.513-.875-.28-1.574-.431-1.516-.921.035-.257.385-.513 1.038-.781z" fill="#fff"/><defs><linearGradient id="A" x1="13.994" y1="0" x2="13.994" y2="27.79" gradientUnits="userSpaceOnUse"><stop stop-color="#2aabee"/><stop offset="1" stop-color="#229ed9"/></linearGradient></defs></svg>
